<mxfile host="app.diagrams.net" modified="2020-11-03T05:31:38.690Z" agent="5.0 (Windows NT 6.1; Win64; x64) AppleWebKit/537.36 (KHTML, like Gecko) Chrome/86.0.4240.111 Safari/537.36" etag="G0I92Y-5QXxEQygVLfrq" version="13.8.8" type="github">
  <diagram id="vNgZWrpzDYzzdddmAn2B" name="Page-1">
    <mxGraphModel dx="1480" dy="351" grid="1" gridSize="10" guides="1" tooltips="1" connect="1" arrows="1" fold="1" page="1" pageScale="1" pageWidth="850" pageHeight="1100" math="0" shadow="0">
      <root>
        <mxCell id="0" />
        <mxCell id="1" parent="0" />
        <mxCell id="qQMLoW2gxgnW_H9YLuUZ-3" value="" style="endArrow=classic;html=1;exitX=0.006;exitY=0;exitDx=0;exitDy=0;exitPerimeter=0;strokeWidth=3;" parent="1" source="qQMLoW2gxgnW_H9YLuUZ-9" edge="1">
          <mxGeometry width="50" height="50" relative="1" as="geometry">
            <mxPoint x="290" y="480" as="sourcePoint" />
            <mxPoint x="280" y="440" as="targetPoint" />
          </mxGeometry>
        </mxCell>
        <mxCell id="qQMLoW2gxgnW_H9YLuUZ-4" value="" style="endArrow=classic;html=1;exitX=1;exitY=0.5;exitDx=0;exitDy=0;entryX=0;entryY=0.5;entryDx=0;entryDy=0;strokeWidth=3;" parent="1" source="qQMLoW2gxgnW_H9YLuUZ-9" target="qQMLoW2gxgnW_H9YLuUZ-14" edge="1">
          <mxGeometry width="50" height="50" relative="1" as="geometry">
            <mxPoint x="520.4000000000001" y="551.04" as="sourcePoint" />
            <mxPoint x="570" y="460" as="targetPoint" />
          </mxGeometry>
        </mxCell>
        <mxCell id="qQMLoW2gxgnW_H9YLuUZ-5" value="" style="endArrow=classic;html=1;exitX=0;exitY=0.986;exitDx=0;exitDy=0;exitPerimeter=0;entryX=0.5;entryY=0;entryDx=0;entryDy=0;strokeWidth=3;" parent="1" source="qQMLoW2gxgnW_H9YLuUZ-9" target="qQMLoW2gxgnW_H9YLuUZ-18" edge="1">
          <mxGeometry width="50" height="50" relative="1" as="geometry">
            <mxPoint x="348.767493306244" y="616.14797586449" as="sourcePoint" />
            <mxPoint x="417" y="730" as="targetPoint" />
          </mxGeometry>
        </mxCell>
        <mxCell id="qQMLoW2gxgnW_H9YLuUZ-9" value="" style="triangle;whiteSpace=wrap;html=1;rotation=0;strokeWidth=3;" parent="1" vertex="1">
          <mxGeometry x="360" y="480" width="180" height="210" as="geometry" />
        </mxCell>
        <mxCell id="qQMLoW2gxgnW_H9YLuUZ-13" value="&lt;font style=&quot;font-size: 20px&quot;&gt;Types of Languages&lt;/font&gt;" style="text;html=1;strokeColor=none;fillColor=none;align=center;verticalAlign=middle;whiteSpace=wrap;rounded=0;" parent="1" vertex="1">
          <mxGeometry x="373" y="560" width="105" height="40" as="geometry" />
        </mxCell>
        <mxCell id="qQMLoW2gxgnW_H9YLuUZ-14" value="&lt;div style=&quot;font-size: 20px&quot;&gt;&lt;font style=&quot;font-size: 20px&quot;&gt;Programming Language&lt;/font&gt;&lt;/div&gt;&lt;div style=&quot;font-size: 20px&quot;&gt;&lt;font style=&quot;font-size: 20px&quot;&gt;(This are languages which can be interpreted or compiled)&amp;nbsp;&lt;/font&gt;&lt;/div&gt;" style="rounded=1;whiteSpace=wrap;html=1;strokeWidth=3;" parent="1" vertex="1">
          <mxGeometry x="680" y="430" width="240" height="140" as="geometry" />
        </mxCell>
        <mxCell id="qQMLoW2gxgnW_H9YLuUZ-17" value="&lt;div&gt;&lt;font style=&quot;font-size: 20px&quot;&gt;Scripting &lt;/font&gt;&lt;font style=&quot;font-size: 20px&quot;&gt;Language&lt;/font&gt;&lt;/div&gt;&lt;div style=&quot;font-size: 20px&quot;&gt;&lt;font style=&quot;font-size: 20px&quot;&gt;(This are languages which define the nature the program and these are only interpreted.&lt;/font&gt;&lt;/div&gt;&lt;div style=&quot;font-size: 20px&quot;&gt;By mainly the browsers which have the engines(Interpreters) built into them)&lt;/div&gt;&lt;div&gt;&lt;br&gt;&lt;/div&gt;" style="rounded=1;whiteSpace=wrap;html=1;strokeWidth=3;" parent="1" vertex="1">
          <mxGeometry x="-100" y="300" width="380" height="180" as="geometry" />
        </mxCell>
        <mxCell id="qQMLoW2gxgnW_H9YLuUZ-18" value="&lt;div style=&quot;font-size: 20px&quot;&gt;&lt;font style=&quot;font-size: 20px&quot;&gt;Markup languages&lt;/font&gt;&lt;/div&gt;&lt;div style=&quot;font-size: 20px&quot;&gt;&lt;span&gt;&lt;/span&gt;(This are languages to structure the data and&amp;nbsp;&lt;/div&gt;&lt;div style=&quot;font-size: 20px&quot;&gt;&lt;font style=&quot;font-size: 20px&quot;&gt;	enter the static (constant data) data into the page (webpage)&lt;/font&gt;&lt;/div&gt;&lt;div style=&quot;font-size: 20px&quot;&gt;&lt;span&gt;	&lt;/span&gt;like html where we only structure the data using tags&lt;/div&gt;&lt;div style=&quot;font-size: 20px&quot;&gt;&lt;font style=&quot;font-size: 20px&quot;&gt;	and there is no logic here it&#39;s about presentation of data)&lt;/font&gt;&lt;/div&gt;&lt;div style=&quot;font-size: 20px&quot;&gt;&lt;br&gt;&lt;/div&gt;" style="rounded=1;whiteSpace=wrap;html=1;strokeWidth=3;" parent="1" vertex="1">
          <mxGeometry x="190" y="810" width="340" height="260" as="geometry" />
        </mxCell>
      </root>
    </mxGraphModel>
  </diagram>
</mxfile>
